<svg width="64" height="64" viewBox="0 0 64 64" fill="none" xmlns="http://www.w3.org/2000/svg">
<path d="M20 16V20H17C13.134 20 10 23.134 10 27V53C10 56.866 13.134 60 17 60H47C50.866 60 54 56.866 54 53V27C54 23.134 50.866 20 47 20H44V16C44 9.37258 38.6274 4 32 4C25.3726 4 20 9.37258 20 16ZM32 8C36.4183 8 40 11.5817 40 16V20H24V16C24 11.5817 27.5817 8 32 8ZM32 44C29.7909 44 28 42.2091 28 40C28 37.7909 29.7909 36 32 36C34.2091 36 36 37.7909 36 40C36 42.2091 34.2091 44 32 44Z" fill="white"/>
</svg>
